ISO-10303-21;
HEADER;
FILE_DESCRIPTION(('Open CASCADE Model'),'2;1');
FILE_NAME('Open CASCADE Shape Model','2025-08-03T22:34:10',('Author'),(
    'Open CASCADE'),'Open CASCADE STEP processor 7.7','Open CASCADE 7.7'
  ,'Unknown');
FILE_SCHEMA(('AUTOMOTIVE_DESIGN { 1 0 10303 214 1 1 1 1 }'));
ENDSEC;
DATA;
#1 = APPLICATION_PROTOCOL_DEFINITION('international standard',
  'automotive_design',2000,#2);
#2 = APPLICATION_CONTEXT(
  'core data for automotive mechanical design processes');
#3 = SHAPE_DEFINITION_REPRESENTATION(#4,#10);
#4 = PRODUCT_DEFINITION_SHAPE('','',#5);
#5 = PRODUCT_DEFINITION('design','',#6,#9);
#6 = PRODUCT_DEFINITION_FORMATION('','',#7);
#7 = PRODUCT('Open CASCADE STEP translator 7.7 4',
  'Open CASCADE STEP translator 7.7 4','',(#8));
#8 = PRODUCT_CONTEXT('',#2,'mechanical');
#9 = PRODUCT_DEFINITION_CONTEXT('part definition',#2,'design');
#10 = ADVANCED_BREP_SHAPE_REPRESENTATION('',(#11,#15),#448);
#11 = AXIS2_PLACEMENT_3D('',#12,#13,#14);
#12 = CARTESIAN_POINT('',(0.,0.,0.));
#13 = DIRECTION('',(0.,0.,1.));
#14 = DIRECTION('',(1.,0.,-0.));
#15 = MANIFOLD_SOLID_BREP('',#16);
#16 = CLOSED_SHELL('',(#17,#168,#266,#321,#350,#389,#444));
#17 = ADVANCED_FACE('',(#18),#32,.T.);
#18 = FACE_BOUND('',#19,.T.);
#19 = EDGE_LOOP('',(#20,#50,#77,#78));
#20 = ORIENTED_EDGE('',*,*,#21,.F.);
#21 = EDGE_CURVE('',#22,#24,#26,.T.);
#22 = VERTEX_POINT('',#23);
#23 = CARTESIAN_POINT('',(2.5,0.,0.6));
#24 = VERTEX_POINT('',#25);
#25 = CARTESIAN_POINT('',(2.5,0.,3.362884462354));
#26 = SEAM_CURVE('',#27,(#31,#43),.PCURVE_S1.);
#27 = LINE('',#28,#29);
#28 = CARTESIAN_POINT('',(2.5,0.,0.6));
#29 = VECTOR('',#30,1.);
#30 = DIRECTION('',(0.,0.,1.));
#31 = PCURVE('',#32,#37);
#32 = CYLINDRICAL_SURFACE('',#33,2.5);
#33 = AXIS2_PLACEMENT_3D('',#34,#35,#36);
#34 = CARTESIAN_POINT('',(0.,0.,0.6));
#35 = DIRECTION('',(0.,0.,1.));
#36 = DIRECTION('',(1.,0.,-0.));
#37 = DEFINITIONAL_REPRESENTATION('',(#38),#42);
#38 = LINE('',#39,#40);
#39 = CARTESIAN_POINT('',(0.,0.));
#40 = VECTOR('',#41,1.);
#41 = DIRECTION('',(0.,1.));
#42 = ( GEOMETRIC_REPRESENTATION_CONTEXT(2) 
PARAMETRIC_REPRESENTATION_CONTEXT() REPRESENTATION_CONTEXT('2D SPACE',''
  ) );
#43 = PCURVE('',#32,#44);
#44 = DEFINITIONAL_REPRESENTATION('',(#45),#49);
#45 = LINE('',#46,#47);
#46 = CARTESIAN_POINT('',(6.28318530718,0.));
#47 = VECTOR('',#48,1.);
#48 = DIRECTION('',(0.,1.));
#49 = ( GEOMETRIC_REPRESENTATION_CONTEXT(2) 
PARAMETRIC_REPRESENTATION_CONTEXT() REPRESENTATION_CONTEXT('2D SPACE',''
  ) );
#50 = ORIENTED_EDGE('',*,*,#51,.T.);
#51 = EDGE_CURVE('',#22,#22,#52,.T.);
#52 = SURFACE_CURVE('',#53,(#58,#65),.PCURVE_S1.);
#53 = CIRCLE('',#54,2.5);
#54 = AXIS2_PLACEMENT_3D('',#55,#56,#57);
#55 = CARTESIAN_POINT('',(0.,0.,0.6));
#56 = DIRECTION('',(0.,0.,1.));
#57 = DIRECTION('',(1.,0.,-0.));
#58 = PCURVE('',#32,#59);
#59 = DEFINITIONAL_REPRESENTATION('',(#60),#64);
#60 = LINE('',#61,#62);
#61 = CARTESIAN_POINT('',(0.,0.));
#62 = VECTOR('',#63,1.);
#63 = DIRECTION('',(1.,0.));
#64 = ( GEOMETRIC_REPRESENTATION_CONTEXT(2) 
PARAMETRIC_REPRESENTATION_CONTEXT() REPRESENTATION_CONTEXT('2D SPACE',''
  ) );
#65 = PCURVE('',#66,#71);
#66 = CONICAL_SURFACE('',#67,3.1,0.785398163397);
#67 = AXIS2_PLACEMENT_3D('',#68,#69,#70);
#68 = CARTESIAN_POINT('',(0.,0.,0.));
#69 = DIRECTION('',(-0.,-0.,-1.));
#70 = DIRECTION('',(1.,0.,-0.));
#71 = DEFINITIONAL_REPRESENTATION('',(#72),#76);
#72 = LINE('',#73,#74);
#73 = CARTESIAN_POINT('',(-0.,-0.6));
#74 = VECTOR('',#75,1.);
#75 = DIRECTION('',(-1.,-0.));
#76 = ( GEOMETRIC_REPRESENTATION_CONTEXT(2) 
PARAMETRIC_REPRESENTATION_CONTEXT() REPRESENTATION_CONTEXT('2D SPACE',''
  ) );
#77 = ORIENTED_EDGE('',*,*,#21,.T.);
#78 = ORIENTED_EDGE('',*,*,#79,.F.);
#79 = EDGE_CURVE('',#24,#24,#80,.T.);
#80 = SURFACE_CURVE('',#81,(#96,#118),.PCURVE_S1.);
#81 = ( BOUNDED_CURVE() B_SPLINE_CURVE(13,(#82,#83,#84,#85,#86,#87,#88,
    #89,#90,#91,#92,#93,#94,#95),.UNSPECIFIED.,.T.,.F.) 
B_SPLINE_CURVE_WITH_KNOTS((14,14),(3.106555508923E-16,15.707963267949),
.PIECEWISE_BEZIER_KNOTS.) CURVE() GEOMETRIC_REPRESENTATION_ITEM() 
RATIONAL_B_SPLINE_CURVE((1.,1.,1.000000000001,0.999999999997,
    1.000000000006,0.99999999999,1.000000000011,0.99999999999,
    1.000000000008,0.999999999995,1.000000000002,0.999999999999,1.,1.)) 
REPRESENTATION_ITEM('') );
#82 = CARTESIAN_POINT('',(2.5,0.,3.362884462354));
#83 = CARTESIAN_POINT('',(2.500000000001,1.190825886764,3.362884462354)
  );
#84 = CARTESIAN_POINT('',(1.884541892296,2.409113115869,3.362884462354)
  );
#85 = CARTESIAN_POINT('',(0.618015285825,3.280240320886,3.362884462354)
  );
#86 = CARTESIAN_POINT('',(-1.124886085402,3.414028857858,3.362884462354)
  );
#87 = CARTESIAN_POINT('',(-2.630545419375,2.48554515104,3.362884462354)
  );
#88 = CARTESIAN_POINT('',(-3.734788378754,1.130166370706,3.362884462353)
  );
#89 = CARTESIAN_POINT('',(-3.734788378775,-1.13016637073,3.362884462355)
  );
#90 = CARTESIAN_POINT('',(-2.630545419378,-2.485545150996,3.362884462353
    ));
#91 = CARTESIAN_POINT('',(-1.124886085384,-3.414028857897,3.362884462355
    ));
#92 = CARTESIAN_POINT('',(0.618015285807,-3.280240320867,3.362884462354)
  );
#93 = CARTESIAN_POINT('',(1.884541892305,-2.409113115875,3.362884462354)
  );
#94 = CARTESIAN_POINT('',(2.499999999999,-1.190825886764,3.362884462354)
  );
#95 = CARTESIAN_POINT('',(2.5,-6.123233995737E-16,3.362884462354));
#96 = PCURVE('',#32,#97);
#97 = DEFINITIONAL_REPRESENTATION('',(#98),#117);
#98 = B_SPLINE_CURVE_WITH_KNOTS('',9,(#99,#100,#101,#102,#103,#104,#105,
    #106,#107,#108,#109,#110,#111,#112,#113,#114,#115,#116),
  .UNSPECIFIED.,.F.,.F.,(10,8,10),(3.106555508923E-16,7.853981633974,
    15.707963267949),.UNSPECIFIED.);
#99 = CARTESIAN_POINT('',(-6.661338147751E-16,2.762884462354));
#100 = CARTESIAN_POINT('',(0.344016367287,2.762884462353));
#101 = CARTESIAN_POINT('',(0.693951626852,2.762884462356));
#102 = CARTESIAN_POINT('',(1.045310680394,2.762884462351));
#103 = CARTESIAN_POINT('',(1.396480962002,2.762884462357));
#104 = CARTESIAN_POINT('',(1.74485073445,2.762884462352));
#105 = CARTESIAN_POINT('',(2.094637362127,2.762884462355));
#106 = CARTESIAN_POINT('',(2.443412978475,2.762884462354));
#107 = CARTESIAN_POINT('',(2.792527182977,2.762884462354));
#108 = CARTESIAN_POINT('',(3.490658124203,2.762884462354));
#109 = CARTESIAN_POINT('',(3.839772328707,2.762884462354));
#110 = CARTESIAN_POINT('',(4.188547945039,2.762884462354));
#111 = CARTESIAN_POINT('',(4.538334572758,2.762884462355));
#112 = CARTESIAN_POINT('',(4.886704345142,2.762884462353));
#113 = CARTESIAN_POINT('',(5.237874626814,2.762884462355));
#114 = CARTESIAN_POINT('',(5.589233680315,2.762884462353));
#115 = CARTESIAN_POINT('',(5.939168939893,2.762884462354));
#116 = CARTESIAN_POINT('',(6.28318530718,2.762884462354));
#117 = ( GEOMETRIC_REPRESENTATION_CONTEXT(2) 
PARAMETRIC_REPRESENTATION_CONTEXT() REPRESENTATION_CONTEXT('2D SPACE',''
  ) );
#118 = PCURVE('',#119,#162);
#119 = ( BOUNDED_SURFACE() B_SPLINE_SURFACE(2,13,(
    (#120,#121,#122,#123,#124,#125,#126,#127,#128,#129,#130,#131,#132
      ,#133)
    ,(#134,#135,#136,#137,#138,#139,#140,#141,#142,#143,#144,#145,#146
      ,#147)
    ,(#148,#149,#150,#151,#152,#153,#154,#155,#156,#157,#158,#159,#160
,#161
    )),.UNSPECIFIED.,.F.,.T.,.F.) B_SPLINE_SURFACE_WITH_KNOTS((3,3),(14,
    14),(0.,15.707963267949),(3.106555508923E-16,15.707963267949),
.PIECEWISE_BEZIER_KNOTS.) GEOMETRIC_REPRESENTATION_ITEM() 
RATIONAL_B_SPLINE_SURFACE((
    (1.,1.,1.000000000001,0.999999999997,1.000000000006,0.99999999999
      ,1.000000000011,0.99999999999,1.000000000008,0.999999999995
      ,1.000000000002,0.999999999999,1.,1.)
    ,(0.815839252208,0.815839252208,0.815839252209,0.815839252206
      ,0.815839252213,0.815839252201,0.815839252217,0.8158392522
      ,0.815839252214,0.815839252205,0.81583925221,0.815839252208
      ,0.815839252208,0.815839252208)
    ,(1.,1.,1.000000000001,0.999999999997,1.000000000006,0.99999999999
      ,1.000000000011,0.99999999999,1.000000000008,0.999999999995
,1.000000000002,0.999999999999,1.,1.
  ))) REPRESENTATION_ITEM('') SURFACE() );
#120 = CARTESIAN_POINT('',(2.5,0.,3.362884462354));
#121 = CARTESIAN_POINT('',(2.500000000001,1.190825886764,3.362884462354)
  );
#122 = CARTESIAN_POINT('',(1.884541892296,2.409113115869,3.362884462354)
  );
#123 = CARTESIAN_POINT('',(0.618015285825,3.280240320886,3.362884462354)
  );
#124 = CARTESIAN_POINT('',(-1.124886085402,3.414028857858,3.362884462354
    ));
#125 = CARTESIAN_POINT('',(-2.630545419375,2.48554515104,3.362884462354)
  );
#126 = CARTESIAN_POINT('',(-3.734788378754,1.130166370706,3.362884462353
    ));
#127 = CARTESIAN_POINT('',(-3.734788378775,-1.13016637073,3.362884462355
    ));
#128 = CARTESIAN_POINT('',(-2.630545419378,-2.485545150996,
    3.362884462353));
#129 = CARTESIAN_POINT('',(-1.124886085384,-3.414028857897,
    3.362884462355));
#130 = CARTESIAN_POINT('',(0.618015285807,-3.280240320867,3.362884462354
    ));
#131 = CARTESIAN_POINT('',(1.884541892305,-2.409113115875,3.362884462354
    ));
#132 = CARTESIAN_POINT('',(2.499999999999,-1.190825886764,3.362884462354
    ));
#133 = CARTESIAN_POINT('',(2.5,-6.123233995737E-16,3.362884462354));
#134 = CARTESIAN_POINT('',(2.5,-2.586039021812E-15,4.071699035861));
#135 = CARTESIAN_POINT('',(2.500000000001,1.190825886764,4.071699035861)
  );
#136 = CARTESIAN_POINT('',(1.884541892297,2.40911311587,4.071699035861)
  );
#137 = CARTESIAN_POINT('',(0.618015285823,3.280240320885,4.071699035861)
  );
#138 = CARTESIAN_POINT('',(-1.1248860854,3.41402885786,4.071699035861));
#139 = CARTESIAN_POINT('',(-2.630545419379,2.485545151037,4.071699035861
    ));
#140 = CARTESIAN_POINT('',(-3.734788378751,1.130166370707,4.071699035861
    ));
#141 = CARTESIAN_POINT('',(-3.734788378778,-1.13016637073,4.071699035861
    ));
#142 = CARTESIAN_POINT('',(-2.630545419375,-2.485545150997,
    4.071699035861));
#143 = CARTESIAN_POINT('',(-1.124886085386,-3.414028857895,
    4.071699035861));
#144 = CARTESIAN_POINT('',(0.618015285808,-3.280240320868,4.071699035861
    ));
#145 = CARTESIAN_POINT('',(1.884541892305,-2.409113115874,4.071699035861
    ));
#146 = CARTESIAN_POINT('',(2.499999999999,-1.190825886764,4.071699035861
    ));
#147 = CARTESIAN_POINT('',(2.5,3.774758283726E-15,4.071699035861));
#148 = CARTESIAN_POINT('',(1.831187370887,0.,4.306449470907));
#149 = CARTESIAN_POINT('',(1.831187370888,0.872250129907,4.306449470907)
  );
#150 = CARTESIAN_POINT('',(1.380379725232,1.764615005127,4.306449470907)
  );
#151 = CARTESIAN_POINT('',(0.452680714566,2.402693859631,4.306449470906)
  );
#152 = CARTESIAN_POINT('',(-0.823950877308,2.500690611342,4.306449470907
    ));
#153 = CARTESIAN_POINT('',(-1.926808620205,1.820599556139,4.306449470906
    ));
#154 = CARTESIAN_POINT('',(-2.73563892484,0.827818554017,4.306449470908)
  );
#155 = CARTESIAN_POINT('',(-2.735638924864,-0.827818554035,
    4.306449470905));
#156 = CARTESIAN_POINT('',(-1.926808620199,-1.820599556107,
    4.306449470908));
#157 = CARTESIAN_POINT('',(-0.8239508773,-2.500690611371,4.306449470906)
  );
#158 = CARTESIAN_POINT('',(0.452680714555,-2.402693859618,4.306449470907
    ));
#159 = CARTESIAN_POINT('',(1.380379725238,-1.764615005131,4.306449470906
    ));
#160 = CARTESIAN_POINT('',(1.831187370886,-0.872250129907,4.306449470907
    ));
#161 = CARTESIAN_POINT('',(1.831187370887,-4.485115504791E-16,
    4.306449470907));
#162 = DEFINITIONAL_REPRESENTATION('',(#163),#167);
#163 = LINE('',#164,#165);
#164 = CARTESIAN_POINT('',(0.,0.));
#165 = VECTOR('',#166,1.);
#166 = DIRECTION('',(0.,1.));
#167 = ( GEOMETRIC_REPRESENTATION_CONTEXT(2) 
PARAMETRIC_REPRESENTATION_CONTEXT() REPRESENTATION_CONTEXT('2D SPACE',''
  ) );
#168 = ADVANCED_FACE('',(#169),#119,.F.);
#169 = FACE_BOUND('',#170,.F.);
#170 = EDGE_LOOP('',(#171,#192,#264,#265));
#171 = ORIENTED_EDGE('',*,*,#172,.T.);
#172 = EDGE_CURVE('',#24,#173,#175,.T.);
#173 = VERTEX_POINT('',#174);
#174 = CARTESIAN_POINT('',(1.831187370887,0.,4.306449470907));
#175 = SEAM_CURVE('',#176,(#180,#186),.PCURVE_S1.);
#176 = ( BOUNDED_CURVE() B_SPLINE_CURVE(2,(#177,#178,#179),
.UNSPECIFIED.,.F.,.F.) B_SPLINE_CURVE_WITH_KNOTS((3,3),(0.,
15.707963267949),.PIECEWISE_BEZIER_KNOTS.) CURVE() 
GEOMETRIC_REPRESENTATION_ITEM() RATIONAL_B_SPLINE_CURVE((1.,
0.815839252208,1.)) REPRESENTATION_ITEM('') );
#177 = CARTESIAN_POINT('',(2.5,0.,3.362884462354));
#178 = CARTESIAN_POINT('',(2.5,-2.586039021812E-15,4.071699035861));
#179 = CARTESIAN_POINT('',(1.831187370887,0.,4.306449470907));
#180 = PCURVE('',#119,#181);
#181 = DEFINITIONAL_REPRESENTATION('',(#182),#185);
#182 = B_SPLINE_CURVE_WITH_KNOTS('',1,(#183,#184),.UNSPECIFIED.,.F.,.F.,
  (2,2),(0.,15.707963267949),.PIECEWISE_BEZIER_KNOTS.);
#183 = CARTESIAN_POINT('',(0.,3.106555508923E-16));
#184 = CARTESIAN_POINT('',(15.707963267949,3.106555508923E-16));
#185 = ( GEOMETRIC_REPRESENTATION_CONTEXT(2) 
PARAMETRIC_REPRESENTATION_CONTEXT() REPRESENTATION_CONTEXT('2D SPACE',''
  ) );
#186 = PCURVE('',#119,#187);
#187 = DEFINITIONAL_REPRESENTATION('',(#188),#191);
#188 = B_SPLINE_CURVE_WITH_KNOTS('',1,(#189,#190),.UNSPECIFIED.,.F.,.F.,
  (2,2),(0.,15.707963267949),.PIECEWISE_BEZIER_KNOTS.);
#189 = CARTESIAN_POINT('',(0.,15.707963267949));
#190 = CARTESIAN_POINT('',(15.707963267949,15.707963267949));
#191 = ( GEOMETRIC_REPRESENTATION_CONTEXT(2) 
PARAMETRIC_REPRESENTATION_CONTEXT() REPRESENTATION_CONTEXT('2D SPACE',''
  ) );
#192 = ORIENTED_EDGE('',*,*,#193,.T.);
#193 = EDGE_CURVE('',#173,#173,#194,.T.);
#194 = SURFACE_CURVE('',#195,(#210,#217),.PCURVE_S1.);
#195 = ( BOUNDED_CURVE() B_SPLINE_CURVE(13,(#196,#197,#198,#199,#200,
    #201,#202,#203,#204,#205,#206,#207,#208,#209),.UNSPECIFIED.,.T.,.F.)
 B_SPLINE_CURVE_WITH_KNOTS((14,14),(3.106555508923E-16,15.707963267949),
.PIECEWISE_BEZIER_KNOTS.) CURVE() GEOMETRIC_REPRESENTATION_ITEM() 
RATIONAL_B_SPLINE_CURVE((1.,1.,1.000000000001,0.999999999997,
    1.000000000006,0.99999999999,1.000000000011,0.99999999999,
    1.000000000008,0.999999999995,1.000000000002,0.999999999999,1.,1.)) 
REPRESENTATION_ITEM('') );
#196 = CARTESIAN_POINT('',(1.831187370887,0.,4.306449470907));
#197 = CARTESIAN_POINT('',(1.831187370888,0.872250129907,4.306449470907)
  );
#198 = CARTESIAN_POINT('',(1.380379725232,1.764615005127,4.306449470907)
  );
#199 = CARTESIAN_POINT('',(0.452680714566,2.402693859631,4.306449470906)
  );
#200 = CARTESIAN_POINT('',(-0.823950877308,2.500690611342,4.306449470907
    ));
#201 = CARTESIAN_POINT('',(-1.926808620205,1.820599556139,4.306449470906
    ));
#202 = CARTESIAN_POINT('',(-2.73563892484,0.827818554017,4.306449470908)
  );
#203 = CARTESIAN_POINT('',(-2.735638924864,-0.827818554035,
    4.306449470905));
#204 = CARTESIAN_POINT('',(-1.926808620199,-1.820599556107,
    4.306449470908));
#205 = CARTESIAN_POINT('',(-0.8239508773,-2.500690611371,4.306449470906)
  );
#206 = CARTESIAN_POINT('',(0.452680714555,-2.402693859618,4.306449470907
    ));
#207 = CARTESIAN_POINT('',(1.380379725238,-1.764615005131,4.306449470906
    ));
#208 = CARTESIAN_POINT('',(1.831187370886,-0.872250129907,4.306449470907
    ));
#209 = CARTESIAN_POINT('',(1.831187370887,-4.485115504791E-16,
    4.306449470907));
#210 = PCURVE('',#119,#211);
#211 = DEFINITIONAL_REPRESENTATION('',(#212),#216);
#212 = LINE('',#213,#214);
#213 = CARTESIAN_POINT('',(15.707963267949,0.));
#214 = VECTOR('',#215,1.);
#215 = DIRECTION('',(0.,1.));
#216 = ( GEOMETRIC_REPRESENTATION_CONTEXT(2) 
PARAMETRIC_REPRESENTATION_CONTEXT() REPRESENTATION_CONTEXT('2D SPACE',''
  ) );
#217 = PCURVE('',#218,#227);
#218 = SURFACE_OF_REVOLUTION('',#219,#224);
#219 = CIRCLE('',#220,4.);
#220 = AXIS2_PLACEMENT_3D('',#221,#222,#223);
#221 = CARTESIAN_POINT('',(0.506437887339,0.,0.532189436696));
#222 = DIRECTION('',(0.,-1.,0.));
#223 = DIRECTION('',(0.498390528165,0.,0.866952640826));
#224 = AXIS1_PLACEMENT('',#225,#226);
#225 = CARTESIAN_POINT('',(0.,0.,0.));
#226 = DIRECTION('',(0.,0.,1.));
#227 = DEFINITIONAL_REPRESENTATION('',(#228),#263);
#228 = B_SPLINE_CURVE_WITH_KNOTS('',9,(#229,#230,#231,#232,#233,#234,
    #235,#236,#237,#238,#239,#240,#241,#242,#243,#244,#245,#246,#247,
    #248,#249,#250,#251,#252,#253,#254,#255,#256,#257,#258,#259,#260,
    #261,#262),.UNSPECIFIED.,.F.,.F.,(10,8,8,8,10),(3.106555508923E-16,
    3.926990816987,7.853981633974,11.780972450962,15.707963267949),
  .UNSPECIFIED.);
#229 = CARTESIAN_POINT('',(-9.992007221626E-16,0.18417962681));
#230 = CARTESIAN_POINT('',(0.172008183644,0.18417962681));
#231 = CARTESIAN_POINT('',(0.345505080346,0.18417962681));
#232 = CARTESIAN_POINT('',(0.519902738501,0.18417962681));
#233 = CARTESIAN_POINT('',(0.694816684698,0.18417962681));
#234 = CARTESIAN_POINT('',(0.870020022699,0.18417962681));
#235 = CARTESIAN_POINT('',(1.045163743319,0.18417962681));
#236 = CARTESIAN_POINT('',(1.220247897464,0.18417962681));
#237 = CARTESIAN_POINT('',(1.395213882135,0.18417962681));
#238 = CARTESIAN_POINT('',(1.744935678453,0.18417962681));
#239 = CARTESIAN_POINT('',(1.919689843876,0.18417962681));
#240 = CARTESIAN_POINT('',(2.094344336757,0.18417962681));
#241 = CARTESIAN_POINT('',(2.268925302966,0.18417962681));
#242 = CARTESIAN_POINT('',(2.443466306166,0.18417962681));
#243 = CARTESIAN_POINT('',(2.617995559728,0.18417962681));
#244 = CARTESIAN_POINT('',(2.792526971975,0.18417962681));
#245 = CARTESIAN_POINT('',(2.967059918283,0.18417962681));
#246 = CARTESIAN_POINT('',(3.316125388896,0.18417962681));
#247 = CARTESIAN_POINT('',(3.490658335204,0.18417962681));
#248 = CARTESIAN_POINT('',(3.665189747452,0.18417962681));
#249 = CARTESIAN_POINT('',(3.839719001013,0.18417962681));
#250 = CARTESIAN_POINT('',(4.014260004214,0.18417962681));
#251 = CARTESIAN_POINT('',(4.188840970422,0.18417962681));
#252 = CARTESIAN_POINT('',(4.363495463304,0.18417962681));
#253 = CARTESIAN_POINT('',(4.538249628727,0.18417962681));
#254 = CARTESIAN_POINT('',(4.887971425045,0.18417962681));
#255 = CARTESIAN_POINT('',(5.062937409717,0.18417962681));
#256 = CARTESIAN_POINT('',(5.238021563854,0.18417962681));
#257 = CARTESIAN_POINT('',(5.413165284496,0.18417962681));
#258 = CARTESIAN_POINT('',(5.588368622462,0.18417962681));
#259 = CARTESIAN_POINT('',(5.763282568697,0.18417962681));
#260 = CARTESIAN_POINT('',(5.937680226826,0.18417962681));
#261 = CARTESIAN_POINT('',(6.111177123536,0.18417962681));
#262 = CARTESIAN_POINT('',(6.28318530718,0.18417962681));
#263 = ( GEOMETRIC_REPRESENTATION_CONTEXT(2) 
PARAMETRIC_REPRESENTATION_CONTEXT() REPRESENTATION_CONTEXT('2D SPACE',''
  ) );
#264 = ORIENTED_EDGE('',*,*,#172,.F.);
#265 = ORIENTED_EDGE('',*,*,#79,.F.);
#266 = ADVANCED_FACE('',(#267),#66,.T.);
#267 = FACE_BOUND('',#268,.T.);
#268 = EDGE_LOOP('',(#269,#298,#319,#320));
#269 = ORIENTED_EDGE('',*,*,#270,.T.);
#270 = EDGE_CURVE('',#271,#271,#273,.T.);
#271 = VERTEX_POINT('',#272);
#272 = CARTESIAN_POINT('',(3.1,0.,0.));
#273 = SURFACE_CURVE('',#274,(#279,#286),.PCURVE_S1.);
#274 = CIRCLE('',#275,3.1);
#275 = AXIS2_PLACEMENT_3D('',#276,#277,#278);
#276 = CARTESIAN_POINT('',(0.,0.,0.));
#277 = DIRECTION('',(0.,0.,1.));
#278 = DIRECTION('',(1.,0.,-0.));
#279 = PCURVE('',#66,#280);
#280 = DEFINITIONAL_REPRESENTATION('',(#281),#285);
#281 = LINE('',#282,#283);
#282 = CARTESIAN_POINT('',(-0.,-0.));
#283 = VECTOR('',#284,1.);
#284 = DIRECTION('',(-1.,-0.));
#285 = ( GEOMETRIC_REPRESENTATION_CONTEXT(2) 
PARAMETRIC_REPRESENTATION_CONTEXT() REPRESENTATION_CONTEXT('2D SPACE',''
  ) );
#286 = PCURVE('',#287,#292);
#287 = PLANE('',#288);
#288 = AXIS2_PLACEMENT_3D('',#289,#290,#291);
#289 = CARTESIAN_POINT('',(0.,0.,0.));
#290 = DIRECTION('',(0.,0.,1.));
#291 = DIRECTION('',(1.,0.,-0.));
#292 = DEFINITIONAL_REPRESENTATION('',(#293),#297);
#293 = CIRCLE('',#294,3.1);
#294 = AXIS2_PLACEMENT_2D('',#295,#296);
#295 = CARTESIAN_POINT('',(0.,0.));
#296 = DIRECTION('',(1.,-0.));
#297 = ( GEOMETRIC_REPRESENTATION_CONTEXT(2) 
PARAMETRIC_REPRESENTATION_CONTEXT() REPRESENTATION_CONTEXT('2D SPACE',''
  ) );
#298 = ORIENTED_EDGE('',*,*,#299,.T.);
#299 = EDGE_CURVE('',#271,#22,#300,.T.);
#300 = SEAM_CURVE('',#301,(#305,#312),.PCURVE_S1.);
#301 = LINE('',#302,#303);
#302 = CARTESIAN_POINT('',(3.1,0.,0.));
#303 = VECTOR('',#304,1.);
#304 = DIRECTION('',(-0.707106781187,0.,0.707106781187));
#305 = PCURVE('',#66,#306);
#306 = DEFINITIONAL_REPRESENTATION('',(#307),#311);
#307 = LINE('',#308,#309);
#308 = CARTESIAN_POINT('',(-0.,-0.));
#309 = VECTOR('',#310,1.);
#310 = DIRECTION('',(-0.,-1.));
#311 = ( GEOMETRIC_REPRESENTATION_CONTEXT(2) 
PARAMETRIC_REPRESENTATION_CONTEXT() REPRESENTATION_CONTEXT('2D SPACE',''
  ) );
#312 = PCURVE('',#66,#313);
#313 = DEFINITIONAL_REPRESENTATION('',(#314),#318);
#314 = LINE('',#315,#316);
#315 = CARTESIAN_POINT('',(-6.28318530718,-0.));
#316 = VECTOR('',#317,1.);
#317 = DIRECTION('',(-0.,-1.));
#318 = ( GEOMETRIC_REPRESENTATION_CONTEXT(2) 
PARAMETRIC_REPRESENTATION_CONTEXT() REPRESENTATION_CONTEXT('2D SPACE',''
  ) );
#319 = ORIENTED_EDGE('',*,*,#51,.F.);
#320 = ORIENTED_EDGE('',*,*,#299,.F.);
#321 = ADVANCED_FACE('',(#322),#218,.T.);
#322 = FACE_BOUND('',#323,.T.);
#323 = EDGE_LOOP('',(#324,#348,#349));
#324 = ORIENTED_EDGE('',*,*,#325,.F.);
#325 = EDGE_CURVE('',#173,#326,#328,.T.);
#326 = VERTEX_POINT('',#327);
#327 = CARTESIAN_POINT('',(-4.440892098501E-16,0.,4.5));
#328 = SEAM_CURVE('',#329,(#334,#341),.PCURVE_S1.);
#329 = CIRCLE('',#330,4.);
#330 = AXIS2_PLACEMENT_3D('',#331,#332,#333);
#331 = CARTESIAN_POINT('',(0.506437887339,0.,0.532189436696));
#332 = DIRECTION('',(0.,-1.,0.));
#333 = DIRECTION('',(0.498390528165,0.,0.866952640826));
#334 = PCURVE('',#218,#335);
#335 = DEFINITIONAL_REPRESENTATION('',(#336),#340);
#336 = LINE('',#337,#338);
#337 = CARTESIAN_POINT('',(0.,0.));
#338 = VECTOR('',#339,1.);
#339 = DIRECTION('',(0.,1.));
#340 = ( GEOMETRIC_REPRESENTATION_CONTEXT(2) 
PARAMETRIC_REPRESENTATION_CONTEXT() REPRESENTATION_CONTEXT('2D SPACE',''
  ) );
#341 = PCURVE('',#218,#342);
#342 = DEFINITIONAL_REPRESENTATION('',(#343),#347);
#343 = LINE('',#344,#345);
#344 = CARTESIAN_POINT('',(6.28318530718,0.));
#345 = VECTOR('',#346,1.);
#346 = DIRECTION('',(0.,1.));
#347 = ( GEOMETRIC_REPRESENTATION_CONTEXT(2) 
PARAMETRIC_REPRESENTATION_CONTEXT() REPRESENTATION_CONTEXT('2D SPACE',''
  ) );
#348 = ORIENTED_EDGE('',*,*,#193,.T.);
#349 = ORIENTED_EDGE('',*,*,#325,.T.);
#350 = ADVANCED_FACE('',(#351,#354),#287,.F.);
#351 = FACE_BOUND('',#352,.T.);
#352 = EDGE_LOOP('',(#353));
#353 = ORIENTED_EDGE('',*,*,#270,.F.);
#354 = FACE_BOUND('',#355,.T.);
#355 = EDGE_LOOP('',(#356));
#356 = ORIENTED_EDGE('',*,*,#357,.F.);
#357 = EDGE_CURVE('',#358,#358,#360,.T.);
#358 = VERTEX_POINT('',#359);
#359 = CARTESIAN_POINT('',(1.25,0.,0.));
#360 = SURFACE_CURVE('',#361,(#366,#377),.PCURVE_S1.);
#361 = CIRCLE('',#362,1.25);
#362 = AXIS2_PLACEMENT_3D('',#363,#364,#365);
#363 = CARTESIAN_POINT('',(0.,0.,0.));
#364 = DIRECTION('',(0.,0.,-1.));
#365 = DIRECTION('',(1.,0.,0.));
#366 = PCURVE('',#287,#367);
#367 = DEFINITIONAL_REPRESENTATION('',(#368),#376);
#368 = ( BOUNDED_CURVE() B_SPLINE_CURVE(2,(#369,#370,#371,#372,#373,#374
,#375),.UNSPECIFIED.,.T.,.F.) B_SPLINE_CURVE_WITH_KNOTS((1,2,2,2,2,1),(
    -2.094395102393,0.,2.094395102393,4.188790204786,6.28318530718,
8.377580409573),.UNSPECIFIED.) CURVE() GEOMETRIC_REPRESENTATION_ITEM() 
RATIONAL_B_SPLINE_CURVE((1.,0.5,1.,0.5,1.,0.5,1.)) REPRESENTATION_ITEM(
  '') );
#369 = CARTESIAN_POINT('',(1.25,0.));
#370 = CARTESIAN_POINT('',(1.25,-2.165063509461));
#371 = CARTESIAN_POINT('',(-0.625,-1.082531754731));
#372 = CARTESIAN_POINT('',(-2.5,-3.061616997868E-16));
#373 = CARTESIAN_POINT('',(-0.625,1.082531754731));
#374 = CARTESIAN_POINT('',(1.25,2.165063509461));
#375 = CARTESIAN_POINT('',(1.25,0.));
#376 = ( GEOMETRIC_REPRESENTATION_CONTEXT(2) 
PARAMETRIC_REPRESENTATION_CONTEXT() REPRESENTATION_CONTEXT('2D SPACE',''
  ) );
#377 = PCURVE('',#378,#383);
#378 = CYLINDRICAL_SURFACE('',#379,1.25);
#379 = AXIS2_PLACEMENT_3D('',#380,#381,#382);
#380 = CARTESIAN_POINT('',(0.,0.,0.));
#381 = DIRECTION('',(0.,0.,-1.));
#382 = DIRECTION('',(1.,0.,0.));
#383 = DEFINITIONAL_REPRESENTATION('',(#384),#388);
#384 = LINE('',#385,#386);
#385 = CARTESIAN_POINT('',(0.,0.));
#386 = VECTOR('',#387,1.);
#387 = DIRECTION('',(1.,0.));
#388 = ( GEOMETRIC_REPRESENTATION_CONTEXT(2) 
PARAMETRIC_REPRESENTATION_CONTEXT() REPRESENTATION_CONTEXT('2D SPACE',''
  ) );
#389 = ADVANCED_FACE('',(#390),#378,.F.);
#390 = FACE_BOUND('',#391,.F.);
#391 = EDGE_LOOP('',(#392,#415,#442,#443));
#392 = ORIENTED_EDGE('',*,*,#393,.T.);
#393 = EDGE_CURVE('',#358,#394,#396,.T.);
#394 = VERTEX_POINT('',#395);
#395 = CARTESIAN_POINT('',(1.25,0.,0.3));
#396 = SEAM_CURVE('',#397,(#401,#408),.PCURVE_S1.);
#397 = LINE('',#398,#399);
#398 = CARTESIAN_POINT('',(1.25,0.,0.));
#399 = VECTOR('',#400,1.);
#400 = DIRECTION('',(0.,-0.,1.));
#401 = PCURVE('',#378,#402);
#402 = DEFINITIONAL_REPRESENTATION('',(#403),#407);
#403 = LINE('',#404,#405);
#404 = CARTESIAN_POINT('',(0.,0.));
#405 = VECTOR('',#406,1.);
#406 = DIRECTION('',(0.,-1.));
#407 = ( GEOMETRIC_REPRESENTATION_CONTEXT(2) 
PARAMETRIC_REPRESENTATION_CONTEXT() REPRESENTATION_CONTEXT('2D SPACE',''
  ) );
#408 = PCURVE('',#378,#409);
#409 = DEFINITIONAL_REPRESENTATION('',(#410),#414);
#410 = LINE('',#411,#412);
#411 = CARTESIAN_POINT('',(6.28318530718,0.));
#412 = VECTOR('',#413,1.);
#413 = DIRECTION('',(0.,-1.));
#414 = ( GEOMETRIC_REPRESENTATION_CONTEXT(2) 
PARAMETRIC_REPRESENTATION_CONTEXT() REPRESENTATION_CONTEXT('2D SPACE',''
  ) );
#415 = ORIENTED_EDGE('',*,*,#416,.T.);
#416 = EDGE_CURVE('',#394,#394,#417,.T.);
#417 = SURFACE_CURVE('',#418,(#423,#430),.PCURVE_S1.);
#418 = CIRCLE('',#419,1.25);
#419 = AXIS2_PLACEMENT_3D('',#420,#421,#422);
#420 = CARTESIAN_POINT('',(0.,0.,0.3));
#421 = DIRECTION('',(0.,0.,-1.));
#422 = DIRECTION('',(1.,0.,0.));
#423 = PCURVE('',#378,#424);
#424 = DEFINITIONAL_REPRESENTATION('',(#425),#429);
#425 = LINE('',#426,#427);
#426 = CARTESIAN_POINT('',(0.,-0.3));
#427 = VECTOR('',#428,1.);
#428 = DIRECTION('',(1.,0.));
#429 = ( GEOMETRIC_REPRESENTATION_CONTEXT(2) 
PARAMETRIC_REPRESENTATION_CONTEXT() REPRESENTATION_CONTEXT('2D SPACE',''
  ) );
#430 = PCURVE('',#431,#436);
#431 = PLANE('',#432);
#432 = AXIS2_PLACEMENT_3D('',#433,#434,#435);
#433 = CARTESIAN_POINT('',(-6.837200662697E-17,-8.571706328947E-17,0.3)
  );
#434 = DIRECTION('',(-0.,-0.,-1.));
#435 = DIRECTION('',(-1.,0.,0.));
#436 = DEFINITIONAL_REPRESENTATION('',(#437),#441);
#437 = CIRCLE('',#438,1.25);
#438 = AXIS2_PLACEMENT_2D('',#439,#440);
#439 = CARTESIAN_POINT('',(-6.837200662697E-17,8.571706328947E-17));
#440 = DIRECTION('',(-1.,0.));
#441 = ( GEOMETRIC_REPRESENTATION_CONTEXT(2) 
PARAMETRIC_REPRESENTATION_CONTEXT() REPRESENTATION_CONTEXT('2D SPACE',''
  ) );
#442 = ORIENTED_EDGE('',*,*,#393,.F.);
#443 = ORIENTED_EDGE('',*,*,#357,.F.);
#444 = ADVANCED_FACE('',(#445),#431,.T.);
#445 = FACE_BOUND('',#446,.T.);
#446 = EDGE_LOOP('',(#447));
#447 = ORIENTED_EDGE('',*,*,#416,.T.);
#448 = ( GEOMETRIC_REPRESENTATION_CONTEXT(3) 
GLOBAL_UNCERTAINTY_ASSIGNED_CONTEXT((#452)) GLOBAL_UNIT_ASSIGNED_CONTEXT
((#449,#450,#451)) REPRESENTATION_CONTEXT('Context #1',
  '3D Context with UNIT and UNCERTAINTY') );
#449 = ( LENGTH_UNIT() NAMED_UNIT(*) SI_UNIT(.MILLI.,.METRE.) );
#450 = ( NAMED_UNIT(*) PLANE_ANGLE_UNIT() SI_UNIT($,.RADIAN.) );
#451 = ( NAMED_UNIT(*) SI_UNIT($,.STERADIAN.) SOLID_ANGLE_UNIT() );
#452 = UNCERTAINTY_MEASURE_WITH_UNIT(LENGTH_MEASURE(1.E-05),#449,
  'distance_accuracy_value','confusion accuracy');
#453 = PRODUCT_RELATED_PRODUCT_CATEGORY('part',$,(#7));
ENDSEC;
END-ISO-10303-21;
