ISO-10303-21;
HEADER;
FILE_DESCRIPTION(('Open CASCADE Model'),'2;1');
FILE_NAME('Open CASCADE Shape Model','2026-04-25T18:40:22',('Author'),(
    'Open CASCADE'),'Open CASCADE STEP processor 7.7','Open CASCADE 7.7'
  ,'Unknown');
FILE_SCHEMA(('AUTOMOTIVE_DESIGN { 1 0 10303 214 1 1 1 1 }'));
ENDSEC;
DATA;
#1 = APPLICATION_PROTOCOL_DEFINITION('international standard',
  'automotive_design',2000,#2);
#2 = APPLICATION_CONTEXT(
  'core data for automotive mechanical design processes');
#3 = SHAPE_DEFINITION_REPRESENTATION(#4,#10);
#4 = PRODUCT_DEFINITION_SHAPE('','',#5);
#5 = PRODUCT_DEFINITION('design','',#6,#9);
#6 = PRODUCT_DEFINITION_FORMATION('','',#7);
#7 = PRODUCT('Open CASCADE STEP translator 7.7 8',
  'Open CASCADE STEP translator 7.7 8','',(#8));
#8 = PRODUCT_CONTEXT('',#2,'mechanical');
#9 = PRODUCT_DEFINITION_CONTEXT('part definition',#2,'design');
#10 = ADVANCED_BREP_SHAPE_REPRESENTATION('',(#11,#15),#483);
#11 = AXIS2_PLACEMENT_3D('',#12,#13,#14);
#12 = CARTESIAN_POINT('',(0.,0.,0.));
#13 = DIRECTION('',(0.,0.,1.));
#14 = DIRECTION('',(1.,0.,-0.));
#15 = MANIFOLD_SOLID_BREP('',#16);
#16 = CLOSED_SHELL('',(#17,#168,#266,#301,#330,#385,#424,#479));
#17 = ADVANCED_FACE('',(#18),#32,.T.);
#18 = FACE_BOUND('',#19,.T.);
#19 = EDGE_LOOP('',(#20,#50,#77,#78));
#20 = ORIENTED_EDGE('',*,*,#21,.F.);
#21 = EDGE_CURVE('',#22,#24,#26,.T.);
#22 = VERTEX_POINT('',#23);
#23 = CARTESIAN_POINT('',(2.5,0.,0.5));
#24 = VERTEX_POINT('',#25);
#25 = CARTESIAN_POINT('',(2.5,0.,1.862884462354));
#26 = SEAM_CURVE('',#27,(#31,#43),.PCURVE_S1.);
#27 = LINE('',#28,#29);
#28 = CARTESIAN_POINT('',(2.5,0.,0.5));
#29 = VECTOR('',#30,1.);
#30 = DIRECTION('',(0.,0.,1.));
#31 = PCURVE('',#32,#37);
#32 = CYLINDRICAL_SURFACE('',#33,2.5);
#33 = AXIS2_PLACEMENT_3D('',#34,#35,#36);
#34 = CARTESIAN_POINT('',(0.,0.,0.5));
#35 = DIRECTION('',(0.,0.,1.));
#36 = DIRECTION('',(1.,0.,-0.));
#37 = DEFINITIONAL_REPRESENTATION('',(#38),#42);
#38 = LINE('',#39,#40);
#39 = CARTESIAN_POINT('',(0.,0.));
#40 = VECTOR('',#41,1.);
#41 = DIRECTION('',(0.,1.));
#42 = ( GEOMETRIC_REPRESENTATION_CONTEXT(2) 
PARAMETRIC_REPRESENTATION_CONTEXT() REPRESENTATION_CONTEXT('2D SPACE',''
  ) );
#43 = PCURVE('',#32,#44);
#44 = DEFINITIONAL_REPRESENTATION('',(#45),#49);
#45 = LINE('',#46,#47);
#46 = CARTESIAN_POINT('',(6.28318530718,0.));
#47 = VECTOR('',#48,1.);
#48 = DIRECTION('',(0.,1.));
#49 = ( GEOMETRIC_REPRESENTATION_CONTEXT(2) 
PARAMETRIC_REPRESENTATION_CONTEXT() REPRESENTATION_CONTEXT('2D SPACE',''
  ) );
#50 = ORIENTED_EDGE('',*,*,#51,.T.);
#51 = EDGE_CURVE('',#22,#22,#52,.T.);
#52 = SURFACE_CURVE('',#53,(#58,#65),.PCURVE_S1.);
#53 = CIRCLE('',#54,2.5);
#54 = AXIS2_PLACEMENT_3D('',#55,#56,#57);
#55 = CARTESIAN_POINT('',(0.,0.,0.5));
#56 = DIRECTION('',(0.,0.,1.));
#57 = DIRECTION('',(1.,0.,-0.));
#58 = PCURVE('',#32,#59);
#59 = DEFINITIONAL_REPRESENTATION('',(#60),#64);
#60 = LINE('',#61,#62);
#61 = CARTESIAN_POINT('',(0.,0.));
#62 = VECTOR('',#63,1.);
#63 = DIRECTION('',(1.,0.));
#64 = ( GEOMETRIC_REPRESENTATION_CONTEXT(2) 
PARAMETRIC_REPRESENTATION_CONTEXT() REPRESENTATION_CONTEXT('2D SPACE',''
  ) );
#65 = PCURVE('',#66,#71);
#66 = PLANE('',#67);
#67 = AXIS2_PLACEMENT_3D('',#68,#69,#70);
#68 = CARTESIAN_POINT('',(0.,0.,0.5));
#69 = DIRECTION('',(0.,0.,1.));
#70 = DIRECTION('',(1.,0.,-0.));
#71 = DEFINITIONAL_REPRESENTATION('',(#72),#76);
#72 = CIRCLE('',#73,2.5);
#73 = AXIS2_PLACEMENT_2D('',#74,#75);
#74 = CARTESIAN_POINT('',(0.,0.));
#75 = DIRECTION('',(1.,0.));
#76 = ( GEOMETRIC_REPRESENTATION_CONTEXT(2) 
PARAMETRIC_REPRESENTATION_CONTEXT() REPRESENTATION_CONTEXT('2D SPACE',''
  ) );
#77 = ORIENTED_EDGE('',*,*,#21,.T.);
#78 = ORIENTED_EDGE('',*,*,#79,.F.);
#79 = EDGE_CURVE('',#24,#24,#80,.T.);
#80 = SURFACE_CURVE('',#81,(#96,#118),.PCURVE_S1.);
#81 = ( BOUNDED_CURVE() B_SPLINE_CURVE(13,(#82,#83,#84,#85,#86,#87,#88,
    #89,#90,#91,#92,#93,#94,#95),.UNSPECIFIED.,.T.,.F.) 
B_SPLINE_CURVE_WITH_KNOTS((14,14),(3.106555508923E-16,15.707963267949),
.PIECEWISE_BEZIER_KNOTS.) CURVE() GEOMETRIC_REPRESENTATION_ITEM() 
RATIONAL_B_SPLINE_CURVE((1.,1.,1.000000000001,0.999999999997,
    1.000000000006,0.99999999999,1.000000000011,0.99999999999,
    1.000000000008,0.999999999995,1.000000000002,0.999999999999,1.,1.)) 
REPRESENTATION_ITEM('') );
#82 = CARTESIAN_POINT('',(2.5,0.,1.862884462354));
#83 = CARTESIAN_POINT('',(2.500000000001,1.190825886764,1.862884462354)
  );
#84 = CARTESIAN_POINT('',(1.884541892296,2.409113115869,1.862884462354)
  );
#85 = CARTESIAN_POINT('',(0.618015285824,3.280240320886,1.862884462354)
  );
#86 = CARTESIAN_POINT('',(-1.124886085401,3.414028857858,1.862884462354)
  );
#87 = CARTESIAN_POINT('',(-2.630545419377,2.48554515104,1.862884462355)
  );
#88 = CARTESIAN_POINT('',(-3.734788378752,1.130166370704,1.862884462353)
  );
#89 = CARTESIAN_POINT('',(-3.734788378776,-1.130166370729,1.862884462355
    ));
#90 = CARTESIAN_POINT('',(-2.630545419377,-2.485545150997,1.862884462353
    ));
#91 = CARTESIAN_POINT('',(-1.124886085384,-3.414028857896,1.862884462355
    ));
#92 = CARTESIAN_POINT('',(0.618015285807,-3.280240320867,1.862884462354)
  );
#93 = CARTESIAN_POINT('',(1.884541892305,-2.409113115874,1.862884462354)
  );
#94 = CARTESIAN_POINT('',(2.499999999999,-1.190825886764,1.862884462354)
  );
#95 = CARTESIAN_POINT('',(2.5,-6.123233995737E-16,1.862884462354));
#96 = PCURVE('',#32,#97);
#97 = DEFINITIONAL_REPRESENTATION('',(#98),#117);
#98 = B_SPLINE_CURVE_WITH_KNOTS('',9,(#99,#100,#101,#102,#103,#104,#105,
    #106,#107,#108,#109,#110,#111,#112,#113,#114,#115,#116),
  .UNSPECIFIED.,.F.,.F.,(10,8,10),(3.106555508923E-16,7.853981633974,
    15.707963267949),.UNSPECIFIED.);
#99 = CARTESIAN_POINT('',(6.661338147751E-16,1.362884462354));
#100 = CARTESIAN_POINT('',(0.344016367287,1.362884462354));
#101 = CARTESIAN_POINT('',(0.693951626852,1.362884462355));
#102 = CARTESIAN_POINT('',(1.045310680394,1.362884462352));
#103 = CARTESIAN_POINT('',(1.396480962002,1.362884462355));
#104 = CARTESIAN_POINT('',(1.74485073445,1.362884462353));
#105 = CARTESIAN_POINT('',(2.094637362127,1.362884462354));
#106 = CARTESIAN_POINT('',(2.443412978475,1.362884462354));
#107 = CARTESIAN_POINT('',(2.792527182977,1.362884462354));
#108 = CARTESIAN_POINT('',(3.490658124203,1.362884462354));
#109 = CARTESIAN_POINT('',(3.839772328704,1.362884462354));
#110 = CARTESIAN_POINT('',(4.188547945055,1.362884462354));
#111 = CARTESIAN_POINT('',(4.538334572725,1.362884462354));
#112 = CARTESIAN_POINT('',(4.886704345182,1.362884462353));
#113 = CARTESIAN_POINT('',(5.237874626783,1.362884462355));
#114 = CARTESIAN_POINT('',(5.589233680327,1.362884462353));
#115 = CARTESIAN_POINT('',(5.939168939893,1.362884462354));
#116 = CARTESIAN_POINT('',(6.28318530718,1.362884462354));
#117 = ( GEOMETRIC_REPRESENTATION_CONTEXT(2) 
PARAMETRIC_REPRESENTATION_CONTEXT() REPRESENTATION_CONTEXT('2D SPACE',''
  ) );
#118 = PCURVE('',#119,#162);
#119 = ( BOUNDED_SURFACE() B_SPLINE_SURFACE(2,13,(
    (#120,#121,#122,#123,#124,#125,#126,#127,#128,#129,#130,#131,#132
      ,#133)
    ,(#134,#135,#136,#137,#138,#139,#140,#141,#142,#143,#144,#145,#146
      ,#147)
    ,(#148,#149,#150,#151,#152,#153,#154,#155,#156,#157,#158,#159,#160
,#161
    )),.UNSPECIFIED.,.F.,.T.,.F.) B_SPLINE_SURFACE_WITH_KNOTS((3,3),(14,
    14),(0.,15.707963267949),(3.106555508923E-16,15.707963267949),
.PIECEWISE_BEZIER_KNOTS.) GEOMETRIC_REPRESENTATION_ITEM() 
RATIONAL_B_SPLINE_SURFACE((
    (1.,1.,1.000000000001,0.999999999997,1.000000000006,0.99999999999
      ,1.000000000011,0.99999999999,1.000000000008,0.999999999995
      ,1.000000000002,0.999999999999,1.,1.)
    ,(0.815839252208,0.815839252208,0.815839252209,0.815839252205
      ,0.815839252215,0.815839252197,0.815839252221,0.815839252196
      ,0.815839252218,0.815839252202,0.815839252211,0.815839252207
      ,0.815839252208,0.815839252208)
    ,(1.,1.,1.000000000001,0.999999999997,1.000000000006,0.99999999999
      ,1.000000000011,0.99999999999,1.000000000008,0.999999999995
,1.000000000002,0.999999999999,1.,1.
  ))) REPRESENTATION_ITEM('') SURFACE() );
#120 = CARTESIAN_POINT('',(2.5,0.,1.862884462354));
#121 = CARTESIAN_POINT('',(2.500000000001,1.190825886764,1.862884462354)
  );
#122 = CARTESIAN_POINT('',(1.884541892296,2.409113115869,1.862884462354)
  );
#123 = CARTESIAN_POINT('',(0.618015285824,3.280240320886,1.862884462354)
  );
#124 = CARTESIAN_POINT('',(-1.124886085401,3.414028857858,1.862884462354
    ));
#125 = CARTESIAN_POINT('',(-2.630545419377,2.48554515104,1.862884462355)
  );
#126 = CARTESIAN_POINT('',(-3.734788378752,1.130166370704,1.862884462353
    ));
#127 = CARTESIAN_POINT('',(-3.734788378776,-1.130166370729,
    1.862884462355));
#128 = CARTESIAN_POINT('',(-2.630545419377,-2.485545150997,
    1.862884462353));
#129 = CARTESIAN_POINT('',(-1.124886085384,-3.414028857896,
    1.862884462355));
#130 = CARTESIAN_POINT('',(0.618015285807,-3.280240320867,1.862884462354
    ));
#131 = CARTESIAN_POINT('',(1.884541892305,-2.409113115874,1.862884462354
    ));
#132 = CARTESIAN_POINT('',(2.499999999999,-1.190825886764,1.862884462354
    ));
#133 = CARTESIAN_POINT('',(2.5,-6.123233995737E-16,1.862884462354));
#134 = CARTESIAN_POINT('',(2.5,1.712605751658E-15,2.571699035861));
#135 = CARTESIAN_POINT('',(2.500000000001,1.190825886764,2.571699035861)
  );
#136 = CARTESIAN_POINT('',(1.884541892296,2.409113115869,2.57169903586)
  );
#137 = CARTESIAN_POINT('',(0.618015285824,3.280240320889,2.571699035861)
  );
#138 = CARTESIAN_POINT('',(-1.124886085397,3.414028857852,2.57169903586)
  );
#139 = CARTESIAN_POINT('',(-2.630545419389,2.485545151047,2.571699035862
    ));
#140 = CARTESIAN_POINT('',(-3.734788378732,1.130166370702,2.571699035859
    ));
#141 = CARTESIAN_POINT('',(-3.734788378798,-1.130166370737,
    2.571699035863));
#142 = CARTESIAN_POINT('',(-2.630545419363,-2.485545150985,
    2.571699035859));
#143 = CARTESIAN_POINT('',(-1.12488608539,-3.414028857906,2.571699035862
    ));
#144 = CARTESIAN_POINT('',(0.618015285807,-3.280240320862,2.57169903586)
  );
#145 = CARTESIAN_POINT('',(1.884541892306,-2.409113115876,2.571699035861
    ));
#146 = CARTESIAN_POINT('',(2.499999999999,-1.190825886764,2.571699035861
    ));
#147 = CARTESIAN_POINT('',(2.5,4.527628272299E-16,2.571699035861));
#148 = CARTESIAN_POINT('',(1.831187370887,0.,2.806449470907));
#149 = CARTESIAN_POINT('',(1.831187370888,0.872250129907,2.806449470907)
  );
#150 = CARTESIAN_POINT('',(1.380379725232,1.764615005127,2.806449470907)
  );
#151 = CARTESIAN_POINT('',(0.452680714565,2.402693859633,2.806449470906)
  );
#152 = CARTESIAN_POINT('',(-0.823950877306,2.500690611339,2.806449470907
    ));
#153 = CARTESIAN_POINT('',(-1.926808620208,1.820599556144,2.806449470906
    ));
#154 = CARTESIAN_POINT('',(-2.735638924836,0.827818554011,2.806449470908
    ));
#155 = CARTESIAN_POINT('',(-2.735638924867,-0.827818554029,
    2.806449470905));
#156 = CARTESIAN_POINT('',(-1.926808620197,-1.820599556112,
    2.806449470908));
#157 = CARTESIAN_POINT('',(-0.823950877301,-2.500690611367,
    2.806449470906));
#158 = CARTESIAN_POINT('',(0.452680714556,-2.40269385962,2.806449470907)
  );
#159 = CARTESIAN_POINT('',(1.380379725238,-1.764615005131,2.806449470906
    ));
#160 = CARTESIAN_POINT('',(1.831187370886,-0.872250129907,2.806449470907
    ));
#161 = CARTESIAN_POINT('',(1.831187370887,-4.485115504791E-16,
    2.806449470907));
#162 = DEFINITIONAL_REPRESENTATION('',(#163),#167);
#163 = LINE('',#164,#165);
#164 = CARTESIAN_POINT('',(0.,0.));
#165 = VECTOR('',#166,1.);
#166 = DIRECTION('',(0.,1.));
#167 = ( GEOMETRIC_REPRESENTATION_CONTEXT(2) 
PARAMETRIC_REPRESENTATION_CONTEXT() REPRESENTATION_CONTEXT('2D SPACE',''
  ) );
#168 = ADVANCED_FACE('',(#169),#119,.F.);
#169 = FACE_BOUND('',#170,.F.);
#170 = EDGE_LOOP('',(#171,#192,#264,#265));
#171 = ORIENTED_EDGE('',*,*,#172,.T.);
#172 = EDGE_CURVE('',#24,#173,#175,.T.);
#173 = VERTEX_POINT('',#174);
#174 = CARTESIAN_POINT('',(1.831187370887,0.,2.806449470907));
#175 = SEAM_CURVE('',#176,(#180,#186),.PCURVE_S1.);
#176 = ( BOUNDED_CURVE() B_SPLINE_CURVE(2,(#177,#178,#179),
.UNSPECIFIED.,.F.,.F.) B_SPLINE_CURVE_WITH_KNOTS((3,3),(0.,
15.707963267949),.PIECEWISE_BEZIER_KNOTS.) CURVE() 
GEOMETRIC_REPRESENTATION_ITEM() RATIONAL_B_SPLINE_CURVE((1.,
0.815839252208,1.)) REPRESENTATION_ITEM('') );
#177 = CARTESIAN_POINT('',(2.5,0.,1.862884462354));
#178 = CARTESIAN_POINT('',(2.5,1.712605751658E-15,2.571699035861));
#179 = CARTESIAN_POINT('',(1.831187370887,0.,2.806449470907));
#180 = PCURVE('',#119,#181);
#181 = DEFINITIONAL_REPRESENTATION('',(#182),#185);
#182 = B_SPLINE_CURVE_WITH_KNOTS('',1,(#183,#184),.UNSPECIFIED.,.F.,.F.,
  (2,2),(0.,15.707963267949),.PIECEWISE_BEZIER_KNOTS.);
#183 = CARTESIAN_POINT('',(0.,3.106555508923E-16));
#184 = CARTESIAN_POINT('',(15.707963267949,3.106555508923E-16));
#185 = ( GEOMETRIC_REPRESENTATION_CONTEXT(2) 
PARAMETRIC_REPRESENTATION_CONTEXT() REPRESENTATION_CONTEXT('2D SPACE',''
  ) );
#186 = PCURVE('',#119,#187);
#187 = DEFINITIONAL_REPRESENTATION('',(#188),#191);
#188 = B_SPLINE_CURVE_WITH_KNOTS('',1,(#189,#190),.UNSPECIFIED.,.F.,.F.,
  (2,2),(0.,15.707963267949),.PIECEWISE_BEZIER_KNOTS.);
#189 = CARTESIAN_POINT('',(0.,15.707963267949));
#190 = CARTESIAN_POINT('',(15.707963267949,15.707963267949));
#191 = ( GEOMETRIC_REPRESENTATION_CONTEXT(2) 
PARAMETRIC_REPRESENTATION_CONTEXT() REPRESENTATION_CONTEXT('2D SPACE',''
  ) );
#192 = ORIENTED_EDGE('',*,*,#193,.T.);
#193 = EDGE_CURVE('',#173,#173,#194,.T.);
#194 = SURFACE_CURVE('',#195,(#210,#217),.PCURVE_S1.);
#195 = ( BOUNDED_CURVE() B_SPLINE_CURVE(13,(#196,#197,#198,#199,#200,
    #201,#202,#203,#204,#205,#206,#207,#208,#209),.UNSPECIFIED.,.T.,.F.)
 B_SPLINE_CURVE_WITH_KNOTS((14,14),(3.106555508923E-16,15.707963267949),
.PIECEWISE_BEZIER_KNOTS.) CURVE() GEOMETRIC_REPRESENTATION_ITEM() 
RATIONAL_B_SPLINE_CURVE((1.,1.,1.000000000001,0.999999999997,
    1.000000000006,0.99999999999,1.000000000011,0.99999999999,
    1.000000000008,0.999999999995,1.000000000002,0.999999999999,1.,1.)) 
REPRESENTATION_ITEM('') );
#196 = CARTESIAN_POINT('',(1.831187370887,0.,2.806449470907));
#197 = CARTESIAN_POINT('',(1.831187370888,0.872250129907,2.806449470907)
  );
#198 = CARTESIAN_POINT('',(1.380379725232,1.764615005127,2.806449470907)
  );
#199 = CARTESIAN_POINT('',(0.452680714565,2.402693859633,2.806449470906)
  );
#200 = CARTESIAN_POINT('',(-0.823950877306,2.500690611339,2.806449470907
    ));
#201 = CARTESIAN_POINT('',(-1.926808620208,1.820599556144,2.806449470906
    ));
#202 = CARTESIAN_POINT('',(-2.735638924836,0.827818554011,2.806449470908
    ));
#203 = CARTESIAN_POINT('',(-2.735638924867,-0.827818554029,
    2.806449470905));
#204 = CARTESIAN_POINT('',(-1.926808620197,-1.820599556112,
    2.806449470908));
#205 = CARTESIAN_POINT('',(-0.823950877301,-2.500690611367,
    2.806449470906));
#206 = CARTESIAN_POINT('',(0.452680714556,-2.40269385962,2.806449470907)
  );
#207 = CARTESIAN_POINT('',(1.380379725238,-1.764615005131,2.806449470906
    ));
#208 = CARTESIAN_POINT('',(1.831187370886,-0.872250129907,2.806449470907
    ));
#209 = CARTESIAN_POINT('',(1.831187370887,-4.485115504791E-16,
    2.806449470907));
#210 = PCURVE('',#119,#211);
#211 = DEFINITIONAL_REPRESENTATION('',(#212),#216);
#212 = LINE('',#213,#214);
#213 = CARTESIAN_POINT('',(15.707963267949,0.));
#214 = VECTOR('',#215,1.);
#215 = DIRECTION('',(0.,1.));
#216 = ( GEOMETRIC_REPRESENTATION_CONTEXT(2) 
PARAMETRIC_REPRESENTATION_CONTEXT() REPRESENTATION_CONTEXT('2D SPACE',''
  ) );
#217 = PCURVE('',#218,#227);
#218 = SURFACE_OF_REVOLUTION('',#219,#224);
#219 = CIRCLE('',#220,4.);
#220 = AXIS2_PLACEMENT_3D('',#221,#222,#223);
#221 = CARTESIAN_POINT('',(0.506437887339,0.,-0.967810563304));
#222 = DIRECTION('',(0.,-1.,0.));
#223 = DIRECTION('',(0.498390528165,0.,0.866952640826));
#224 = AXIS1_PLACEMENT('',#225,#226);
#225 = CARTESIAN_POINT('',(0.,0.,0.));
#226 = DIRECTION('',(0.,0.,1.));
#227 = DEFINITIONAL_REPRESENTATION('',(#228),#263);
#228 = B_SPLINE_CURVE_WITH_KNOTS('',9,(#229,#230,#231,#232,#233,#234,
    #235,#236,#237,#238,#239,#240,#241,#242,#243,#244,#245,#246,#247,
    #248,#249,#250,#251,#252,#253,#254,#255,#256,#257,#258,#259,#260,
    #261,#262),.UNSPECIFIED.,.F.,.F.,(10,8,8,8,10),(3.106555508923E-16,
    3.926990816987,7.853981633974,11.780972450962,15.707963267949),
  .UNSPECIFIED.);
#229 = CARTESIAN_POINT('',(-1.33226762955E-15,0.18417962681));
#230 = CARTESIAN_POINT('',(0.172008183644,0.18417962681));
#231 = CARTESIAN_POINT('',(0.345505080345,0.18417962681));
#232 = CARTESIAN_POINT('',(0.519902738501,0.18417962681));
#233 = CARTESIAN_POINT('',(0.694816684698,0.18417962681));
#234 = CARTESIAN_POINT('',(0.870020022699,0.18417962681));
#235 = CARTESIAN_POINT('',(1.045163743319,0.18417962681));
#236 = CARTESIAN_POINT('',(1.220247897464,0.18417962681));
#237 = CARTESIAN_POINT('',(1.395213882135,0.18417962681));
#238 = CARTESIAN_POINT('',(1.744935678453,0.18417962681));
#239 = CARTESIAN_POINT('',(1.919689843876,0.18417962681));
#240 = CARTESIAN_POINT('',(2.094344336757,0.18417962681));
#241 = CARTESIAN_POINT('',(2.268925302965,0.18417962681));
#242 = CARTESIAN_POINT('',(2.443466306166,0.18417962681));
#243 = CARTESIAN_POINT('',(2.617995559728,0.18417962681));
#244 = CARTESIAN_POINT('',(2.792526971975,0.18417962681));
#245 = CARTESIAN_POINT('',(2.967059918283,0.18417962681));
#246 = CARTESIAN_POINT('',(3.316125388896,0.18417962681));
#247 = CARTESIAN_POINT('',(3.490658335204,0.18417962681));
#248 = CARTESIAN_POINT('',(3.665189747451,0.18417962681));
#249 = CARTESIAN_POINT('',(3.839719001013,0.18417962681));
#250 = CARTESIAN_POINT('',(4.014260004214,0.18417962681));
#251 = CARTESIAN_POINT('',(4.188840970422,0.18417962681));
#252 = CARTESIAN_POINT('',(4.363495463304,0.18417962681));
#253 = CARTESIAN_POINT('',(4.538249628727,0.18417962681));
#254 = CARTESIAN_POINT('',(4.887971425045,0.18417962681));
#255 = CARTESIAN_POINT('',(5.062937409712,0.18417962681));
#256 = CARTESIAN_POINT('',(5.238021563873,0.18417962681));
#257 = CARTESIAN_POINT('',(5.413165284455,0.18417962681));
#258 = CARTESIAN_POINT('',(5.588368622514,0.18417962681));
#259 = CARTESIAN_POINT('',(5.763282568656,0.18417962681));
#260 = CARTESIAN_POINT('',(5.937680226843,0.18417962681));
#261 = CARTESIAN_POINT('',(6.111177123536,0.18417962681));
#262 = CARTESIAN_POINT('',(6.28318530718,0.18417962681));
#263 = ( GEOMETRIC_REPRESENTATION_CONTEXT(2) 
PARAMETRIC_REPRESENTATION_CONTEXT() REPRESENTATION_CONTEXT('2D SPACE',''
  ) );
#264 = ORIENTED_EDGE('',*,*,#172,.F.);
#265 = ORIENTED_EDGE('',*,*,#79,.F.);
#266 = ADVANCED_FACE('',(#267,#298),#66,.T.);
#267 = FACE_BOUND('',#268,.T.);
#268 = EDGE_LOOP('',(#269));
#269 = ORIENTED_EDGE('',*,*,#270,.T.);
#270 = EDGE_CURVE('',#271,#271,#273,.T.);
#271 = VERTEX_POINT('',#272);
#272 = CARTESIAN_POINT('',(3.1,0.,0.5));
#273 = SURFACE_CURVE('',#274,(#279,#286),.PCURVE_S1.);
#274 = CIRCLE('',#275,3.1);
#275 = AXIS2_PLACEMENT_3D('',#276,#277,#278);
#276 = CARTESIAN_POINT('',(0.,0.,0.5));
#277 = DIRECTION('',(0.,0.,1.));
#278 = DIRECTION('',(1.,0.,-0.));
#279 = PCURVE('',#66,#280);
#280 = DEFINITIONAL_REPRESENTATION('',(#281),#285);
#281 = CIRCLE('',#282,3.1);
#282 = AXIS2_PLACEMENT_2D('',#283,#284);
#283 = CARTESIAN_POINT('',(0.,0.));
#284 = DIRECTION('',(1.,0.));
#285 = ( GEOMETRIC_REPRESENTATION_CONTEXT(2) 
PARAMETRIC_REPRESENTATION_CONTEXT() REPRESENTATION_CONTEXT('2D SPACE',''
  ) );
#286 = PCURVE('',#287,#292);
#287 = CYLINDRICAL_SURFACE('',#288,3.1);
#288 = AXIS2_PLACEMENT_3D('',#289,#290,#291);
#289 = CARTESIAN_POINT('',(0.,0.,0.));
#290 = DIRECTION('',(0.,0.,1.));
#291 = DIRECTION('',(1.,0.,-0.));
#292 = DEFINITIONAL_REPRESENTATION('',(#293),#297);
#293 = LINE('',#294,#295);
#294 = CARTESIAN_POINT('',(0.,0.5));
#295 = VECTOR('',#296,1.);
#296 = DIRECTION('',(1.,0.));
#297 = ( GEOMETRIC_REPRESENTATION_CONTEXT(2) 
PARAMETRIC_REPRESENTATION_CONTEXT() REPRESENTATION_CONTEXT('2D SPACE',''
  ) );
#298 = FACE_BOUND('',#299,.T.);
#299 = EDGE_LOOP('',(#300));
#300 = ORIENTED_EDGE('',*,*,#51,.F.);
#301 = ADVANCED_FACE('',(#302),#218,.T.);
#302 = FACE_BOUND('',#303,.T.);
#303 = EDGE_LOOP('',(#304,#328,#329));
#304 = ORIENTED_EDGE('',*,*,#305,.F.);
#305 = EDGE_CURVE('',#173,#306,#308,.T.);
#306 = VERTEX_POINT('',#307);
#307 = CARTESIAN_POINT('',(-6.661338147751E-16,0.,3.));
#308 = SEAM_CURVE('',#309,(#314,#321),.PCURVE_S1.);
#309 = CIRCLE('',#310,4.);
#310 = AXIS2_PLACEMENT_3D('',#311,#312,#313);
#311 = CARTESIAN_POINT('',(0.506437887339,0.,-0.967810563304));
#312 = DIRECTION('',(0.,-1.,0.));
#313 = DIRECTION('',(0.498390528165,0.,0.866952640826));
#314 = PCURVE('',#218,#315);
#315 = DEFINITIONAL_REPRESENTATION('',(#316),#320);
#316 = LINE('',#317,#318);
#317 = CARTESIAN_POINT('',(0.,0.));
#318 = VECTOR('',#319,1.);
#319 = DIRECTION('',(0.,1.));
#320 = ( GEOMETRIC_REPRESENTATION_CONTEXT(2) 
PARAMETRIC_REPRESENTATION_CONTEXT() REPRESENTATION_CONTEXT('2D SPACE',''
  ) );
#321 = PCURVE('',#218,#322);
#322 = DEFINITIONAL_REPRESENTATION('',(#323),#327);
#323 = LINE('',#324,#325);
#324 = CARTESIAN_POINT('',(6.28318530718,0.));
#325 = VECTOR('',#326,1.);
#326 = DIRECTION('',(0.,1.));
#327 = ( GEOMETRIC_REPRESENTATION_CONTEXT(2) 
PARAMETRIC_REPRESENTATION_CONTEXT() REPRESENTATION_CONTEXT('2D SPACE',''
  ) );
#328 = ORIENTED_EDGE('',*,*,#193,.T.);
#329 = ORIENTED_EDGE('',*,*,#305,.T.);
#330 = ADVANCED_FACE('',(#331),#287,.T.);
#331 = FACE_BOUND('',#332,.T.);
#332 = EDGE_LOOP('',(#333,#362,#383,#384));
#333 = ORIENTED_EDGE('',*,*,#334,.T.);
#334 = EDGE_CURVE('',#335,#335,#337,.T.);
#335 = VERTEX_POINT('',#336);
#336 = CARTESIAN_POINT('',(3.1,0.,0.));
#337 = SURFACE_CURVE('',#338,(#343,#350),.PCURVE_S1.);
#338 = CIRCLE('',#339,3.1);
#339 = AXIS2_PLACEMENT_3D('',#340,#341,#342);
#340 = CARTESIAN_POINT('',(0.,0.,0.));
#341 = DIRECTION('',(0.,0.,1.));
#342 = DIRECTION('',(1.,0.,-0.));
#343 = PCURVE('',#287,#344);
#344 = DEFINITIONAL_REPRESENTATION('',(#345),#349);
#345 = LINE('',#346,#347);
#346 = CARTESIAN_POINT('',(0.,0.));
#347 = VECTOR('',#348,1.);
#348 = DIRECTION('',(1.,0.));
#349 = ( GEOMETRIC_REPRESENTATION_CONTEXT(2) 
PARAMETRIC_REPRESENTATION_CONTEXT() REPRESENTATION_CONTEXT('2D SPACE',''
  ) );
#350 = PCURVE('',#351,#356);
#351 = PLANE('',#352);
#352 = AXIS2_PLACEMENT_3D('',#353,#354,#355);
#353 = CARTESIAN_POINT('',(0.,0.,0.));
#354 = DIRECTION('',(0.,0.,1.));
#355 = DIRECTION('',(1.,0.,-0.));
#356 = DEFINITIONAL_REPRESENTATION('',(#357),#361);
#357 = CIRCLE('',#358,3.1);
#358 = AXIS2_PLACEMENT_2D('',#359,#360);
#359 = CARTESIAN_POINT('',(0.,0.));
#360 = DIRECTION('',(1.,-0.));
#361 = ( GEOMETRIC_REPRESENTATION_CONTEXT(2) 
PARAMETRIC_REPRESENTATION_CONTEXT() REPRESENTATION_CONTEXT('2D SPACE',''
  ) );
#362 = ORIENTED_EDGE('',*,*,#363,.T.);
#363 = EDGE_CURVE('',#335,#271,#364,.T.);
#364 = SEAM_CURVE('',#365,(#369,#376),.PCURVE_S1.);
#365 = LINE('',#366,#367);
#366 = CARTESIAN_POINT('',(3.1,0.,0.));
#367 = VECTOR('',#368,1.);
#368 = DIRECTION('',(0.,0.,1.));
#369 = PCURVE('',#287,#370);
#370 = DEFINITIONAL_REPRESENTATION('',(#371),#375);
#371 = LINE('',#372,#373);
#372 = CARTESIAN_POINT('',(0.,0.));
#373 = VECTOR('',#374,1.);
#374 = DIRECTION('',(0.,1.));
#375 = ( GEOMETRIC_REPRESENTATION_CONTEXT(2) 
PARAMETRIC_REPRESENTATION_CONTEXT() REPRESENTATION_CONTEXT('2D SPACE',''
  ) );
#376 = PCURVE('',#287,#377);
#377 = DEFINITIONAL_REPRESENTATION('',(#378),#382);
#378 = LINE('',#379,#380);
#379 = CARTESIAN_POINT('',(6.28318530718,0.));
#380 = VECTOR('',#381,1.);
#381 = DIRECTION('',(0.,1.));
#382 = ( GEOMETRIC_REPRESENTATION_CONTEXT(2) 
PARAMETRIC_REPRESENTATION_CONTEXT() REPRESENTATION_CONTEXT('2D SPACE',''
  ) );
#383 = ORIENTED_EDGE('',*,*,#270,.F.);
#384 = ORIENTED_EDGE('',*,*,#363,.F.);
#385 = ADVANCED_FACE('',(#386,#389),#351,.F.);
#386 = FACE_BOUND('',#387,.T.);
#387 = EDGE_LOOP('',(#388));
#388 = ORIENTED_EDGE('',*,*,#334,.F.);
#389 = FACE_BOUND('',#390,.T.);
#390 = EDGE_LOOP('',(#391));
#391 = ORIENTED_EDGE('',*,*,#392,.F.);
#392 = EDGE_CURVE('',#393,#393,#395,.T.);
#393 = VERTEX_POINT('',#394);
#394 = CARTESIAN_POINT('',(1.5,0.,0.));
#395 = SURFACE_CURVE('',#396,(#401,#412),.PCURVE_S1.);
#396 = CIRCLE('',#397,1.5);
#397 = AXIS2_PLACEMENT_3D('',#398,#399,#400);
#398 = CARTESIAN_POINT('',(0.,0.,0.));
#399 = DIRECTION('',(0.,0.,-1.));
#400 = DIRECTION('',(1.,0.,0.));
#401 = PCURVE('',#351,#402);
#402 = DEFINITIONAL_REPRESENTATION('',(#403),#411);
#403 = ( BOUNDED_CURVE() B_SPLINE_CURVE(2,(#404,#405,#406,#407,#408,#409
,#410),.UNSPECIFIED.,.T.,.F.) B_SPLINE_CURVE_WITH_KNOTS((1,2,2,2,2,1),(
    -2.094395102393,0.,2.094395102393,4.188790204786,6.28318530718,
8.377580409573),.UNSPECIFIED.) CURVE() GEOMETRIC_REPRESENTATION_ITEM() 
RATIONAL_B_SPLINE_CURVE((1.,0.5,1.,0.5,1.,0.5,1.)) REPRESENTATION_ITEM(
  '') );
#404 = CARTESIAN_POINT('',(1.5,0.));
#405 = CARTESIAN_POINT('',(1.5,-2.598076211353));
#406 = CARTESIAN_POINT('',(-0.75,-1.299038105677));
#407 = CARTESIAN_POINT('',(-3.,-3.673940397442E-16));
#408 = CARTESIAN_POINT('',(-0.75,1.299038105677));
#409 = CARTESIAN_POINT('',(1.5,2.598076211353));
#410 = CARTESIAN_POINT('',(1.5,0.));
#411 = ( GEOMETRIC_REPRESENTATION_CONTEXT(2) 
PARAMETRIC_REPRESENTATION_CONTEXT() REPRESENTATION_CONTEXT('2D SPACE',''
  ) );
#412 = PCURVE('',#413,#418);
#413 = CYLINDRICAL_SURFACE('',#414,1.5);
#414 = AXIS2_PLACEMENT_3D('',#415,#416,#417);
#415 = CARTESIAN_POINT('',(0.,0.,0.));
#416 = DIRECTION('',(0.,0.,-1.));
#417 = DIRECTION('',(1.,0.,0.));
#418 = DEFINITIONAL_REPRESENTATION('',(#419),#423);
#419 = LINE('',#420,#421);
#420 = CARTESIAN_POINT('',(0.,0.));
#421 = VECTOR('',#422,1.);
#422 = DIRECTION('',(1.,0.));
#423 = ( GEOMETRIC_REPRESENTATION_CONTEXT(2) 
PARAMETRIC_REPRESENTATION_CONTEXT() REPRESENTATION_CONTEXT('2D SPACE',''
  ) );
#424 = ADVANCED_FACE('',(#425),#413,.F.);
#425 = FACE_BOUND('',#426,.F.);
#426 = EDGE_LOOP('',(#427,#450,#477,#478));
#427 = ORIENTED_EDGE('',*,*,#428,.T.);
#428 = EDGE_CURVE('',#393,#429,#431,.T.);
#429 = VERTEX_POINT('',#430);
#430 = CARTESIAN_POINT('',(1.5,0.,0.8));
#431 = SEAM_CURVE('',#432,(#436,#443),.PCURVE_S1.);
#432 = LINE('',#433,#434);
#433 = CARTESIAN_POINT('',(1.5,0.,0.));
#434 = VECTOR('',#435,1.);
#435 = DIRECTION('',(0.,-0.,1.));
#436 = PCURVE('',#413,#437);
#437 = DEFINITIONAL_REPRESENTATION('',(#438),#442);
#438 = LINE('',#439,#440);
#439 = CARTESIAN_POINT('',(0.,0.));
#440 = VECTOR('',#441,1.);
#441 = DIRECTION('',(0.,-1.));
#442 = ( GEOMETRIC_REPRESENTATION_CONTEXT(2) 
PARAMETRIC_REPRESENTATION_CONTEXT() REPRESENTATION_CONTEXT('2D SPACE',''
  ) );
#443 = PCURVE('',#413,#444);
#444 = DEFINITIONAL_REPRESENTATION('',(#445),#449);
#445 = LINE('',#446,#447);
#446 = CARTESIAN_POINT('',(6.28318530718,0.));
#447 = VECTOR('',#448,1.);
#448 = DIRECTION('',(0.,-1.));
#449 = ( GEOMETRIC_REPRESENTATION_CONTEXT(2) 
PARAMETRIC_REPRESENTATION_CONTEXT() REPRESENTATION_CONTEXT('2D SPACE',''
  ) );
#450 = ORIENTED_EDGE('',*,*,#451,.T.);
#451 = EDGE_CURVE('',#429,#429,#452,.T.);
#452 = SURFACE_CURVE('',#453,(#458,#465),.PCURVE_S1.);
#453 = CIRCLE('',#454,1.5);
#454 = AXIS2_PLACEMENT_3D('',#455,#456,#457);
#455 = CARTESIAN_POINT('',(0.,0.,0.8));
#456 = DIRECTION('',(0.,0.,-1.));
#457 = DIRECTION('',(1.,0.,0.));
#458 = PCURVE('',#413,#459);
#459 = DEFINITIONAL_REPRESENTATION('',(#460),#464);
#460 = LINE('',#461,#462);
#461 = CARTESIAN_POINT('',(0.,-0.8));
#462 = VECTOR('',#463,1.);
#463 = DIRECTION('',(1.,0.));
#464 = ( GEOMETRIC_REPRESENTATION_CONTEXT(2) 
PARAMETRIC_REPRESENTATION_CONTEXT() REPRESENTATION_CONTEXT('2D SPACE',''
  ) );
#465 = PCURVE('',#466,#471);
#466 = PLANE('',#467);
#467 = AXIS2_PLACEMENT_3D('',#468,#469,#470);
#468 = CARTESIAN_POINT('',(-8.546500828371E-17,4.255667768225E-18,0.8));
#469 = DIRECTION('',(-0.,-0.,-1.));
#470 = DIRECTION('',(-1.,0.,0.));
#471 = DEFINITIONAL_REPRESENTATION('',(#472),#476);
#472 = CIRCLE('',#473,1.5);
#473 = AXIS2_PLACEMENT_2D('',#474,#475);
#474 = CARTESIAN_POINT('',(-8.546500828371E-17,-4.255667768225E-18));
#475 = DIRECTION('',(-1.,0.));
#476 = ( GEOMETRIC_REPRESENTATION_CONTEXT(2) 
PARAMETRIC_REPRESENTATION_CONTEXT() REPRESENTATION_CONTEXT('2D SPACE',''
  ) );
#477 = ORIENTED_EDGE('',*,*,#428,.F.);
#478 = ORIENTED_EDGE('',*,*,#392,.F.);
#479 = ADVANCED_FACE('',(#480),#466,.T.);
#480 = FACE_BOUND('',#481,.T.);
#481 = EDGE_LOOP('',(#482));
#482 = ORIENTED_EDGE('',*,*,#451,.T.);
#483 = ( GEOMETRIC_REPRESENTATION_CONTEXT(3) 
GLOBAL_UNCERTAINTY_ASSIGNED_CONTEXT((#487)) GLOBAL_UNIT_ASSIGNED_CONTEXT
((#484,#485,#486)) REPRESENTATION_CONTEXT('Context #1',
  '3D Context with UNIT and UNCERTAINTY') );
#484 = ( LENGTH_UNIT() NAMED_UNIT(*) SI_UNIT(.MILLI.,.METRE.) );
#485 = ( NAMED_UNIT(*) PLANE_ANGLE_UNIT() SI_UNIT($,.RADIAN.) );
#486 = ( NAMED_UNIT(*) SI_UNIT($,.STERADIAN.) SOLID_ANGLE_UNIT() );
#487 = UNCERTAINTY_MEASURE_WITH_UNIT(LENGTH_MEASURE(5.E-06),#484,
  'distance_accuracy_value','confusion accuracy');
#488 = PRODUCT_RELATED_PRODUCT_CATEGORY('part',$,(#7));
ENDSEC;
END-ISO-10303-21;
